<svg width="92" height="96" viewBox="0 0 92 96" fill="none" xmlns="http://www.w3.org/2000/svg">
<path d="M91.7303 53.4588C91.1905 48.5875 89.875 43.9679 87.819 39.7297C86.026 36.0309 83.7252 32.7413 80.9791 29.9453L80.9865 29.9365L52.1452 1.52672C52.1244 1.50324 52.1027 1.48112 52.0802 1.46045C51.1213 0.518372 49.8231 0 48.426 0C47.0271 0 45.6781 0.519527 44.6293 1.46345C43.5018 2.47364 42.8572 3.81402 42.8122 5.24076C42.771 6.5719 43.2661 7.85271 44.21 8.85112C46.0662 10.7295 47.9183 12.6487 49.7729 14.5703C51.5727 16.436 53.4273 18.3573 55.2729 20.2278L19.947 20.1971C15.9071 20.1971 13.1563 22.6301 12.5904 26.7034C12.3418 28.4876 12.7805 30.4493 13.7614 31.9518C14.802 33.5446 16.3129 34.4231 18.0155 34.4231L20.7085 34.4255C24.4288 34.4255 28.1655 34.4137 31.8972 34.4021L35.4558 34.3915L3.39457 64.8122L3.26728 64.9316C1.47644 66.692 0.304028 69.1601 0.0510736 71.7025C-0.140667 73.6287 0.209688 75.3889 1.06469 76.7946C2.08371 78.4705 3.67471 79.3922 5.54495 79.3922C7.38224 79.3922 9.25698 78.4993 10.8262 76.8736L28.1398 58.7017C28.0658 59.589 27.976 60.8908 27.9862 61.8357C28.0057 63.3317 28.3801 66.3334 28.973 68.7703C30.198 73.7786 32.2614 78.3608 35.1057 82.3849C38.0651 86.5716 41.6695 89.8913 45.8179 92.2495C50.2037 94.7372 54.9184 96 59.8314 96H59.877C64.8057 95.9848 69.5353 94.7019 73.9353 92.1858C78.0906 89.7996 81.6933 86.4666 84.6416 82.2806C87.4823 78.2359 89.5428 73.646 90.7655 68.642C91.3703 66.1648 91.7577 63.6089 91.9206 61.0215C92.0716 58.5209 92.0066 55.9764 91.7303 53.4588ZM60.1906 77.4631C49.3629 77.4631 40.5824 67.3895 40.5824 54.9625C40.5824 42.5368 49.3631 32.4633 60.1906 32.4633C71.0185 32.4633 79.7981 42.5368 79.7981 54.9625C79.7984 67.3895 71.0185 77.4631 60.1906 77.4631ZM71.4983 52.9853C71.658 56.6942 70.5028 60.1381 68.4743 62.6875C66.4109 65.2847 63.4666 66.916 60.174 66.916C56.8829 66.916 53.938 65.2847 51.8739 62.6875C49.8463 60.1381 48.6935 56.6947 48.8523 52.9883C49.0079 49.3855 50.3781 46.2053 52.4421 43.9536C54.4717 41.7395 57.1969 40.3887 60.1739 40.3887C63.1512 40.3887 65.8757 41.7399 67.9054 43.9536C69.9705 46.2053 71.3411 49.3832 71.4983 52.9853Z" fill="black" fill-opacity="0.5"/>
</svg>
