<svg width="69" height="96" viewBox="0 0 69 96" fill="none" xmlns="http://www.w3.org/2000/svg">
<path d="M67.489 20.657C67.1102 20.2394 66.5727 20.0013 66.009 20.0009H2.00891C0.904345 19.9961 0.00490627 20.8874 3.12744e-05 21.992C-0.000343726 22.0578 0.00265716 22.1234 0.00884466 22.1889L6.00884 86.1888C6.08628 87.0099 6.65966 87.6991 7.45278 87.9249L35.4527 95.9249C35.6335 95.9763 35.8208 96.0018 36.0087 96.0009C36.2232 96.0007 36.4365 95.9669 36.6407 95.9009L60.6407 87.9009C61.3935 87.6504 61.927 86.9787 62.0007 86.1888L68.0007 22.1889C68.0533 21.6292 67.8673 21.0731 67.489 20.657Z" fill="black" fill-opacity="0.5"/>
<path d="M36.009 80.0011C35.8236 80 35.6391 79.973 35.461 79.921L21.4609 75.9211C20.7737 75.7256 20.2431 75.178 20.0689 74.485L18.0689 66.485C17.7767 65.4198 18.4035 64.3194 19.4687 64.0272C20.5339 63.7351 21.6344 64.3619 21.9265 65.4271C21.9347 65.4569 21.942 65.4867 21.9488 65.5169L23.6687 72.3969L36.0087 75.9249L48.1686 72.4488L51.7686 40.0047H16.0086C14.904 40.0047 14.0085 39.1092 14.0085 38.0047C14.0085 36.9001 14.904 36.0046 16.0086 36.0046H54.0087C55.1132 35.9979 56.014 36.8879 56.0207 37.9925C56.0211 38.0701 56.0172 38.1476 56.0085 38.2246L52.0086 74.2246C51.9178 75.0309 51.349 75.7025 50.5686 75.9247L36.5685 79.9246C36.3869 79.9767 36.1982 80.0024 36.009 80.0011Z" fill="#FAFAFA"/>
<path d="M52.009 56.0011H18.009C16.9045 56.0011 16.009 55.1056 16.009 54.001C16.009 52.8965 16.9045 52.001 18.009 52.001H52.009C53.1135 52.001 54.009 52.8965 54.009 54.001C54.009 55.1056 53.1135 56.0011 52.009 56.0011Z" fill="#FAFAFA"/>
<path d="M22.009 12.001H14.0089C12.9043 12.001 12.0089 11.1055 12.0089 10.001V2.0011C12.009 0.896538 12.9043 0.0010376 14.0089 0.0010376H22.009C23.1135 0.0010376 24.009 0.896538 24.009 2.0011C24.009 3.10566 23.1135 4.00116 22.009 4.00116H16.009V8.0011H22.009C23.1135 8.0011 24.009 8.8966 24.009 10.0012C24.009 11.1057 23.1135 12.001 22.009 12.001Z" fill="black" fill-opacity="0.5"/>
<path d="M38.0089 12.0002H30.0088C28.9043 12.0002 28.0088 11.1047 28.0088 10.0001C28.0088 8.89557 28.9043 8.00006 30.0088 8.00006H33.1808L28.5928 3.41607C27.8108 2.63607 27.8093 1.36969 28.5893 0.587628C28.9654 0.210566 29.4763 -0.000934397 30.0088 3.10344e-06H38.0089C39.1135 3.10344e-06 40.009 0.895503 40.009 2.00007C40.009 3.10463 39.1135 4.00013 38.0089 4.00013H34.837L39.421 8.58413C40.203 9.36413 40.2045 10.6305 39.4245 11.4126C39.0493 11.7887 38.5401 12 38.0089 12.0002Z" fill="black" fill-opacity="0.5"/>
<path d="M54.0091 12.001H46.009C44.9044 12.001 44.0089 11.1055 44.0089 10.0009C44.0089 8.89635 44.9044 8.00085 46.009 8.00085H49.1809L44.593 3.41704C43.8109 2.63704 43.8094 1.37067 44.5894 0.588605C44.9655 0.211542 45.4765 4.2166e-05 46.009 0.000979666H54.0091C55.1136 0.000979666 56.0091 0.89648 56.0091 2.00104C56.0091 3.1056 55.1136 4.0011 54.0091 4.0011H50.8371L55.4211 8.5851C56.2032 9.3651 56.2047 10.6315 55.4247 11.4135C55.0495 11.7895 54.5401 12.0008 54.0091 12.001Z" fill="black" fill-opacity="0.5"/>
</svg>
