<svg width="63" height="40" viewBox="0 0 63 40" fill="none" xmlns="http://www.w3.org/2000/svg">
<path d="M58.9062 0H4.0625C2.98549 0.00106352 1.953 0.32406 1.19144 0.89816C0.429876 1.47226 0.0014108 2.2506 0 3.0625V29.0938C0.0014108 29.9056 0.429876 30.684 1.19144 31.2581C1.953 31.8322 2.98549 32.1552 4.0625 32.1562H24.9971L23.6425 35.2188H20.3125C20.0431 35.2188 19.7848 35.2994 19.5943 35.443C19.4039 35.5866 19.2969 35.7813 19.2969 35.9844V37.5156H10.1562C9.88689 37.5156 9.62856 37.5963 9.4381 37.7399C9.24763 37.8835 9.14062 38.0782 9.14062 38.2812C9.14062 38.4843 9.24763 38.679 9.4381 38.8226C9.62856 38.9662 9.88689 39.0469 10.1562 39.0469H54.8438C55.1131 39.0469 55.3714 38.9662 55.5619 38.8226C55.7524 38.679 55.8594 38.4843 55.8594 38.2812C55.8594 38.0782 55.7524 37.8835 55.5619 37.7399C55.3714 37.5963 55.1131 37.5156 54.8438 37.5156H43.6719V35.9844C43.6719 35.7813 43.5649 35.5866 43.3744 35.443C43.1839 35.2994 42.9256 35.2188 42.6562 35.2188H39.3263L37.9717 32.1562H58.9062C59.9833 32.1552 61.0158 31.8322 61.7773 31.2581C62.5389 30.684 62.9673 29.9056 62.9688 29.0938V3.0625C62.9673 2.2506 62.5389 1.47226 61.7773 0.89816C61.0158 0.32406 59.9833 0.00106352 58.9062 0ZM41.6406 36.75V37.5156H21.3281V36.75H41.6406ZM25.7842 35.2188L27.1388 32.1562H35.83L37.1846 35.2188H25.7842ZM60.9375 29.0938C60.9368 29.4997 60.7226 29.8889 60.3418 30.1759C59.961 30.463 59.4448 30.6245 58.9062 30.625H4.0625C3.524 30.6245 3.00775 30.463 2.62697 30.1759C2.24619 29.8889 2.03196 29.4997 2.03125 29.0938V27.5625H60.9375V29.0938ZM17.2225 19.1406L16.8416 26.0312H15.6584L15.2775 19.1406H17.2225ZM15.4172 17.6094L16.0951 14.5469H16.4049L17.0828 17.6094H15.4172ZM16.25 13.0156C15.1493 13.0156 14.2188 11.9638 14.2188 10.7188C14.2188 9.93303 15.2826 8.79129 16.2475 7.98643C17.1171 8.71377 18.2812 9.87656 18.2812 10.7188C18.2812 11.9638 17.3507 13.0156 16.25 13.0156ZM27.3025 11.4844L27.4219 11.6653V12.25H23.3594V11.6653L23.4787 11.4844H27.3025ZM24.4943 9.95312L25.3906 8.60275L26.2869 9.95312H24.4943ZM27.4219 13.7812V25.9355C27.4223 25.9676 27.4252 25.9995 27.4308 26.0312H23.3505C23.356 25.9995 23.359 25.9676 23.3594 25.9355V13.7812H27.4219ZM36.5625 10.7188H39.6094V12.25H38.5938C38.3244 12.25 38.0661 12.3307 37.8756 12.4742C37.6851 12.6178 37.5781 12.8126 37.5781 13.0156C37.5781 13.2187 37.6851 13.4134 37.8756 13.557C38.0661 13.7006 38.3244 13.7812 38.5938 13.7812H39.6094V15.3125H36.5625C36.2931 15.3125 36.0348 15.3932 35.8443 15.5367C35.6539 15.6803 35.5469 15.8751 35.5469 16.0781C35.5469 16.2812 35.6539 16.4759 35.8443 16.6195C36.0348 16.7631 36.2931 16.8438 36.5625 16.8438H39.6094V18.375H38.5938C38.3244 18.375 38.0661 18.4557 37.8756 18.5992C37.6851 18.7428 37.5781 18.9376 37.5781 19.1406C37.5781 19.3437 37.6851 19.5384 37.8756 19.682C38.0661 19.8256 38.3244 19.9062 38.5938 19.9062H39.6094V21.4375H36.5625C36.2931 21.4375 36.0348 21.5182 35.8443 21.6617C35.6539 21.8053 35.5469 22.0001 35.5469 22.2031C35.5469 22.4062 35.6539 22.6009 35.8443 22.7445C36.0348 22.8881 36.2931 22.9688 36.5625 22.9688H39.6094V26.0312H32.5V7.65625H39.6094V9.1875H36.5625C36.2931 9.1875 36.0348 9.26816 35.8443 9.41175C35.6539 9.55533 35.5469 9.75007 35.5469 9.95312C35.5469 10.1562 35.6539 10.3509 35.8443 10.4945C36.0348 10.6381 36.2931 10.7188 36.5625 10.7188ZM48.75 19.9062V25.9355C48.7504 25.9676 48.7534 25.9995 48.7589 26.0312H44.6786C44.6841 25.9995 44.6871 25.9676 44.6875 25.9355V19.9062H48.75ZM44.6875 18.375V17.7903L46.7188 14.7278L48.75 17.7903V18.375H44.6875ZM60.9375 26.0312H50.7724C50.7779 25.9995 50.7809 25.9676 50.7812 25.9355V17.6094C50.7811 17.4905 50.7446 17.3733 50.6746 17.2668L47.6277 12.673C47.5432 12.5459 47.4134 12.439 47.2529 12.3642C47.0923 12.2895 46.9074 12.25 46.7188 12.25C46.5301 12.25 46.3452 12.2895 46.1846 12.3642C46.0241 12.439 45.8943 12.5459 45.8098 12.673L42.7629 17.2668C42.6929 17.3733 42.6564 17.4905 42.6562 17.6094V25.9355C42.6566 25.9676 42.6596 25.9995 42.6651 26.0312H41.6406V6.89062C41.6406 6.68757 41.5336 6.49283 41.3432 6.34925C41.1527 6.20566 40.8944 6.125 40.625 6.125H31.4844C31.215 6.125 30.9567 6.20566 30.7662 6.34925C30.5758 6.49283 30.4688 6.68757 30.4688 6.89062V26.0312H29.4442C29.4498 25.9995 29.4527 25.9676 29.4531 25.9355V11.4844C29.453 11.3655 29.4165 11.2483 29.3465 11.1418L26.2996 6.54801C26.2151 6.42086 26.0853 6.31396 25.9248 6.23925C25.7642 6.16454 25.5793 6.12497 25.3906 6.12497C25.202 6.12497 25.017 6.16454 24.8565 6.23925C24.696 6.31396 24.5662 6.42086 24.4816 6.54801L21.4348 11.1418C21.3648 11.2483 21.3283 11.3655 21.3281 11.4844V25.9355C21.3285 25.9676 21.3315 25.9995 21.337 26.0312H18.8741L19.2956 18.4066C19.2969 18.3894 19.2956 18.3721 19.2956 18.3539V18.331C19.2933 18.304 19.289 18.2772 19.2829 18.2506V18.2487L18.3435 13.9985C19.5229 13.3276 20.3125 12.1084 20.3125 10.7188C20.3125 8.75109 17.2872 6.57193 16.9419 6.3298C16.7537 6.19831 16.5066 6.12525 16.25 6.12525C15.9934 6.12525 15.7463 6.19831 15.5581 6.3298C15.2128 6.57193 12.1875 8.75109 12.1875 10.7188C12.1875 12.1084 12.9771 13.3276 14.1565 13.9985L13.2171 18.2487V18.2506C13.211 18.2772 13.2067 18.304 13.2044 18.331V18.3539C13.2044 18.3721 13.2031 18.3894 13.2044 18.4066L13.6259 26.0312H2.03125V3.0625C2.03196 2.65655 2.24619 2.26738 2.62697 1.98033C3.00775 1.69328 3.524 1.53178 4.0625 1.53125H58.9062C59.4448 1.53178 59.961 1.69328 60.3418 1.98033C60.7226 2.26738 60.9368 2.65655 60.9375 3.0625V26.0312Z" fill="white"/>
<path d="M11.1719 28.3281H5.07812C4.80876 28.3281 4.55044 28.4088 4.35997 28.5524C4.1695 28.696 4.0625 28.8907 4.0625 29.0938C4.0625 29.2968 4.1695 29.4915 4.35997 29.6351C4.55044 29.7787 4.80876 29.8594 5.07812 29.8594H11.1719C11.4412 29.8594 11.6996 29.7787 11.89 29.6351C12.0805 29.4915 12.1875 29.2968 12.1875 29.0938C12.1875 28.8907 12.0805 28.696 11.89 28.5524C11.6996 28.4088 11.4412 28.3281 11.1719 28.3281Z" fill="white"/>
<path d="M15.2344 28.3281H14.2188C13.9494 28.3281 13.6911 28.4088 13.5006 28.5524C13.3101 28.696 13.2031 28.8907 13.2031 29.0938C13.2031 29.2968 13.3101 29.4915 13.5006 29.6351C13.6911 29.7787 13.9494 29.8594 14.2188 29.8594H15.2344C15.5037 29.8594 15.7621 29.7787 15.9525 29.6351C16.143 29.4915 16.25 29.2968 16.25 29.0938C16.25 28.8907 16.143 28.696 15.9525 28.5524C15.7621 28.4088 15.5037 28.3281 15.2344 28.3281Z" fill="white"/>
<path d="M25.3906 14.5469C25.1213 14.5469 24.8629 14.6275 24.6725 14.7711C24.482 14.9147 24.375 15.1094 24.375 15.3125V23.7344C24.375 23.9374 24.482 24.1322 24.6725 24.2758C24.8629 24.4193 25.1213 24.5 25.3906 24.5C25.66 24.5 25.9183 24.4193 26.1088 24.2758C26.2992 24.1322 26.4062 23.9374 26.4062 23.7344V15.3125C26.4062 15.1094 26.2992 14.9147 26.1088 14.7711C25.9183 14.6275 25.66 14.5469 25.3906 14.5469Z" fill="white"/>
<path d="M46.7188 20.6719C46.4494 20.6719 46.1911 20.7525 46.0006 20.8961C45.8101 21.0397 45.7031 21.2344 45.7031 21.4375V23.7344C45.7031 23.9374 45.8101 24.1322 46.0006 24.2758C46.1911 24.4193 46.4494 24.5 46.7188 24.5C46.9881 24.5 47.2464 24.4193 47.4369 24.2758C47.6274 24.1322 47.7344 23.9374 47.7344 23.7344V21.4375C47.7344 21.2344 47.6274 21.0397 47.4369 20.8961C47.2464 20.7525 46.9881 20.6719 46.7188 20.6719Z" fill="white"/>
<path d="M5.07812 4.59375H13.2031C13.4725 4.59375 13.7308 4.51309 13.9213 4.3695C14.1117 4.22592 14.2188 4.03118 14.2188 3.82812C14.2188 3.62507 14.1117 3.43033 13.9213 3.28675C13.7308 3.14316 13.4725 3.0625 13.2031 3.0625H5.07812C4.80876 3.0625 4.55044 3.14316 4.35997 3.28675C4.1695 3.43033 4.0625 3.62507 4.0625 3.82812C4.0625 4.03118 4.1695 4.22592 4.35997 4.3695C4.55044 4.51309 4.80876 4.59375 5.07812 4.59375Z" fill="white"/>
<path d="M5.07812 6.89062H7.10938C7.37874 6.89062 7.63706 6.80996 7.82753 6.66638C8.018 6.5228 8.125 6.32806 8.125 6.125C8.125 5.92194 8.018 5.7272 7.82753 5.58362C7.63706 5.44004 7.37874 5.35938 7.10938 5.35938H5.07812C4.80876 5.35938 4.55044 5.44004 4.35997 5.58362C4.1695 5.7272 4.0625 5.92194 4.0625 6.125C4.0625 6.32806 4.1695 6.5228 4.35997 6.66638C4.55044 6.80996 4.80876 6.89062 5.07812 6.89062Z" fill="white"/>
<path d="M53.8281 24.5H57.8906C58.16 24.5 58.4183 24.4193 58.6088 24.2758C58.7992 24.1322 58.9062 23.9374 58.9062 23.7344C58.9062 23.5313 58.7992 23.3366 58.6088 23.193C58.4183 23.0494 58.16 22.9688 57.8906 22.9688H53.8281C53.5588 22.9688 53.3004 23.0494 53.11 23.193C52.9195 23.3366 52.8125 23.5313 52.8125 23.7344C52.8125 23.9374 52.9195 24.1322 53.11 24.2758C53.3004 24.4193 53.5588 24.5 53.8281 24.5Z" fill="white"/>
<path d="M56.875 22.2031H57.8906C58.16 22.2031 58.4183 22.1225 58.6088 21.9789C58.7992 21.8353 58.9062 21.6406 58.9062 21.4375C58.9062 21.2344 58.7992 21.0397 58.6088 20.8961C58.4183 20.7525 58.16 20.6719 57.8906 20.6719H56.875C56.6056 20.6719 56.3473 20.7525 56.1568 20.8961C55.9664 21.0397 55.8594 21.2344 55.8594 21.4375C55.8594 21.6406 55.9664 21.8353 56.1568 21.9789C56.3473 22.1225 56.6056 22.2031 56.875 22.2031Z" fill="white"/>
</svg>
