<svg width="57" height="45" viewBox="0 0 57 45" fill="none" xmlns="http://www.w3.org/2000/svg">
<path d="M23.2066 21.7485C22.8695 21.3994 22.2756 21.3572 21.8796 21.6545L15.7907 26.2271C15.5807 26.385 15.4599 26.6161 15.4599 26.8592C15.4599 27.1023 15.5807 27.3334 15.7907 27.4908L21.8796 32.0634C22.2756 32.3607 22.8695 32.3185 23.2061 31.9698C23.5433 31.6211 23.496 31.0974 23.1 30.8001L17.8529 26.8592L23.1006 22.9183C23.496 22.621 23.5433 22.0972 23.2066 21.7485Z" fill="white"/>
<path d="M41.2093 26.2271L35.1204 21.6545C34.7244 21.3572 34.1305 21.3993 33.7939 21.7481C33.4567 22.0972 33.504 22.621 33.9 22.9183L39.1471 26.8592L33.9 30.8001C33.504 31.0974 33.4567 31.6211 33.7939 31.9698C34.1305 32.3185 34.7244 32.3607 35.1204 32.0634L41.2093 27.4908C41.4193 27.3334 41.5401 27.1023 41.5401 26.8592C41.5401 26.616 41.4193 26.385 41.2093 26.2271Z" fill="white"/>
<path d="M30.3322 18.1591C29.8239 18.0647 29.3245 18.3518 29.2173 18.8005L25.4222 34.69C25.3151 35.1388 25.6407 35.5787 26.149 35.6732C26.6578 35.7676 27.1567 35.481 27.2638 35.0322L31.059 19.1423C31.1661 18.694 30.841 18.2536 30.3322 18.1591Z" fill="white"/>
<path d="M50.6816 0H6.3184C2.83047 0.00324163 0.00367594 2.49605 0 5.57189V38.7768C0.00367594 41.8526 2.83047 44.345 6.3184 44.3487H50.6816C54.1695 44.345 56.9963 41.8526 57 38.7768V5.57189C56.9963 2.49605 54.1695 0.00324163 50.6816 0ZM6.3184 1.65971H50.6816C53.1303 1.66203 55.1153 3.41251 55.1179 5.57189V11.6291H1.88208V5.57189C1.8847 3.41251 3.8697 1.66203 6.3184 1.65971ZM50.6816 42.689H6.3184C3.8697 42.6862 1.8847 40.9362 1.88208 38.7768V13.2888H55.1179V38.7768C55.1153 40.9362 53.1303 42.6862 50.6816 42.689Z" fill="white"/>
<path d="M16.0696 9.31736H16.0785C17.719 9.31597 19.0497 8.14621 19.0565 6.69952C19.0597 5.25005 17.7316 4.07149 16.088 4.065H16.0785C14.4527 4.08677 13.1467 5.25375 13.1446 6.68701C13.142 8.12074 14.4443 9.29189 16.0696 9.31736ZM15.306 6.00581C15.5108 5.8252 15.7892 5.72425 16.0785 5.72471H16.0822C16.6756 5.74 17.1477 6.16882 17.1466 6.69257C17.1456 7.21586 16.6724 7.64376 16.0785 7.65719H16.0754C15.6322 7.6558 15.2331 7.41916 15.065 7.05749C14.8964 6.69628 14.992 6.28181 15.306 6.00581Z" fill="white"/>
<path d="M6.91916 9.29236H6.92861C8.5665 9.29004 9.89246 8.11796 9.89088 6.67359C9.88983 5.22921 8.56177 4.05945 6.92388 4.05945C5.28652 4.05945 3.95846 5.22921 3.95688 6.67359C3.95583 8.11796 5.28179 9.29004 6.91916 9.29236ZM6.92861 5.70017H6.93229C7.52779 5.71268 8.00303 6.14242 8.00198 6.66757C8.00093 7.19317 7.52464 7.62153 6.92861 7.63265H6.92546C6.32943 7.62014 5.85419 7.1904 5.85524 6.66479C5.85629 6.13918 6.33311 5.71082 6.92861 5.70017Z" fill="white"/>
<path d="M25.22 9.34284H25.2295C26.8705 9.34238 28.2017 8.17169 28.207 6.725C28.2107 5.27507 26.8826 4.0965 25.2384 4.09048H25.2295C23.5921 4.09743 22.2683 5.26905 22.2656 6.7125C22.2635 8.15641 23.5827 9.33127 25.22 9.34284ZM25.2295 5.7502H25.2326C25.8334 5.75668 26.316 6.18828 26.3149 6.71805C26.3139 7.24783 25.8297 7.67804 25.2295 7.68313H25.2258C24.625 7.67619 24.1425 7.24459 24.1435 6.71528C24.1446 6.1855 24.6287 5.75483 25.2295 5.7502Z" fill="white"/>
</svg>
