<svg width="60" height="87" viewBox="0 0 60 87" fill="none" xmlns="http://www.w3.org/2000/svg">
<path d="M19.5 0C10.401 0 3 7.401 3 16.5C3 21.4738 5.22153 25.9295 8.71289 28.957C3.53211 31.7429 0 37.2165 0 43.5C0 49.0819 2.79497 54.0128 7.04883 57C2.79497 59.9872 0 64.9181 0 70.5C0 79.599 7.401 87 16.5 87C25.599 87 33 79.599 33 70.5V54V33H43.5C52.599 33 60 25.599 60 16.5C60 7.401 52.599 0 43.5 0H19.5ZM19.5 6H43.5C49.29 6 54 10.71 54 16.5C54 22.29 49.29 27 43.5 27H33H19.5C13.71 27 9 22.29 9 16.5C9 10.71 13.71 6 19.5 6ZM16.5 33H19.5H27V54H16.5C10.71 54 6 49.29 6 43.5C6 37.71 10.71 33 16.5 33ZM45 33C41.8174 33 38.7652 34.2643 36.5147 36.5147C34.2643 38.7652 33 41.8174 33 45C33 48.1826 34.2643 51.2348 36.5147 53.4853C38.7652 55.7357 41.8174 57 45 57C48.1826 57 51.2348 55.7357 53.4853 53.4853C55.7357 51.2348 57 48.1826 57 45C57 41.8174 55.7357 38.7652 53.4853 36.5147C51.2348 34.2643 48.1826 33 45 33ZM16.5 60H27V70.5C27 76.29 22.29 81 16.5 81C10.71 81 6 76.29 6 70.5C6 64.71 10.71 60 16.5 60Z" fill="black" fill-opacity="0.5"/>
</svg>
