<svg width="62" height="85" viewBox="0 0 62 85" fill="none" xmlns="http://www.w3.org/2000/svg">
<path d="M0 67.0817L29.1985 12.3341C29.8137 11.1802 31.4774 11.2013 32.062 12.3724L42.1667 32.5817L0 67.0817Z" fill="black" fill-opacity="0.4"/>
<path d="M0 67.0664L10.6298 1.51835C10.9077 -0.197065 13.2116 -0.568899 14.0166 0.972101L34.5 40.2331L0 67.0664Z" fill="black" fill-opacity="0.3"/>
<path d="M0.0153351 67.055L0.398668 66.754L33.9959 39.2671L24.5199 21.1048L0.0153351 67.055Z" fill="black" fill-opacity="0.4"/>
<path d="M0 67.0818L51.1098 17.7985C52.1812 16.7654 53.9695 17.3749 54.188 18.8469L61.3333 67.0818L32.5833 83.8392C31.4161 84.4947 29.992 84.4947 28.8247 83.8392L0 67.0818Z" fill="black" fill-opacity="0.5"/>
</svg>
