<svg width="78" height="96" viewBox="0 0 78 96" fill="none" xmlns="http://www.w3.org/2000/svg">
<path d="M22.1537 70.1487L36.9135 84.9178L77.524 44.2981H47.995L22.1537 70.1487Z" fill="black" fill-opacity="0.4"/>
<path d="M47.995 0H77.524L14.7691 62.7641L0 47.995L47.995 0Z" fill="black" fill-opacity="0.4"/>
<path d="M36.9135 84.9178L47.995 95.99H77.524L51.6827 70.1487L36.9135 84.9178Z" fill="black" fill-opacity="0.3"/>
<path d="M58.8177 77.3299L51.6827 70.1487L36.9135 84.9178L58.8177 77.3299Z" fill="url(#paint0_linear)"/>
<path d="M22.152 70.1436L36.9215 55.374L51.6919 70.1436L36.9215 84.9132L22.152 70.1436Z" fill="black"/>
<path d="M77.524 44.2981L51.6827 70.1487L77.524 95.9993H47.995L22.1444 70.1487L47.995 44.2981H77.524ZM47.995 0L0 47.995L14.7691 62.7641L77.524 0H47.995Z" fill="url(#paint1_radial)"/>
<defs>
<linearGradient id="paint0_linear" x1="41.2237" y1="87.768" x2="52.2233" y2="76.7684" gradientUnits="userSpaceOnUse">
<stop stop-color="#1A237E" stop-opacity="0.4"/>
<stop offset="1" stop-color="#1A237E" stop-opacity="0"/>
</linearGradient>
<radialGradient id="paint1_radial" cx="0" cy="0" r="1" gradientUnits="userSpaceOnUse" gradientTransform="translate(2.17791 6.54303) scale(117.443)">
<stop stop-color="white" stop-opacity="0.1"/>
<stop offset="1" stop-color="white" stop-opacity="0"/>
</radialGradient>
</defs>
</svg>
