<svg width="96" height="96" viewBox="0 0 96 96" fill="none" xmlns="http://www.w3.org/2000/svg">
<path d="M85.7145 48H61.7145V54.855H78.1695C75.7695 65.1405 68.2245 73.71 58.284 77.1405L18.855 37.7145C22.9695 25.7145 34.626 17.1435 48 17.1435C58.2855 17.1435 67.545 22.2885 73.371 30.1725L78.516 25.7175C71.655 16.455 60.6855 10.2855 48 10.2855C30.171 10.2855 15.0855 22.971 11.3145 39.771L56.5695 85.026C73.0245 80.9115 85.7145 65.826 85.7145 47.997V48ZM10.2855 48.345C10.2855 57.945 14.0565 67.2 21.2565 74.4C28.4565 81.6 38.0565 85.371 47.3115 85.371L10.2855 48.345Z" fill="white"/>
<path d="M48 0C21.6 0 0 21.6 0 48C0 74.4 21.6 96 48 96C74.4 96 96 74.4 96 48C96 21.6 74.4 0 48 0ZM21.255 74.745C14.055 67.545 10.284 57.945 10.284 48.69L47.655 85.7145C38.055 85.3695 28.455 81.9435 21.255 74.7435V74.745ZM56.226 84.69L11.3145 39.771C15.0855 22.971 30.171 10.2855 48 10.2855C60.6855 10.2855 71.655 16.4565 78.5145 25.7145L73.3695 30.1695C67.545 22.2855 58.2855 17.145 48 17.145C34.629 17.145 23.3145 25.716 18.855 37.716L58.2855 77.145C68.2305 73.716 75.771 65.145 78.171 54.8595H61.716V48H85.716C85.716 65.829 73.0305 80.9145 56.2305 84.6855L56.226 84.69Z" fill="black" fill-opacity="0.5"/>
</svg>
