<svg width="96" height="96" viewBox="0 0 96 96" fill="none" xmlns="http://www.w3.org/2000/svg">
<path d="M95.9719 0H0.028125C0.012592 0 0 0.012592 0 0.028125V95.9719C0 95.9874 0.012592 96 0.028125 96H95.9719C95.9874 96 96 95.9874 96 95.9719V0.028125C96 0.012592 95.9874 0 95.9719 0Z" fill="black" fill-opacity="0.5"/>
<path d="M22.3125 47.8125C25.5 53.4375 31.5 56.8125 41.4375 57.75C39.9375 58.875 38.25 60.9375 38.0625 63.375C36.1875 64.5 32.625 64.875 29.8125 63.9375C25.875 62.625 24.375 54.9375 18.375 56.0625C17.0625 56.25 17.25 57.1875 18.375 57.9375C20.25 59.0625 22.3125 60.9375 23.25 63.5625C25.5 69.375 30.1875 70.875 37.6875 69.75V78.1875C37.6875 80.8125 33.9375 81.5625 33.9375 82.875C33.9375 83.4375 35.25 83.4375 36.1875 83.4375C38.0625 83.4375 42.1875 81.75 42.1875 79.125C42.1875 76.875 42.1875 69.375 42.375 68.0625C42.375 65.25 43.875 64.3125 43.875 64.3125C43.875 64.3125 44.0625 79.6875 43.5 81.5625C42.75 84 41.625 83.625 41.625 84.75C41.625 86.4375 46.5 85.125 48.1875 81.5625C49.5 78.75 48.9375 63.75 48.75 63.9375H50.0625C50.0625 63.9375 50.0625 70.875 50.25 73.875C50.25 77.0625 50.0625 81.1875 51.9375 83.25C53.25 84.5625 57.375 86.8125 57.375 84.75C57.375 83.625 55.125 82.5 55.125 79.3125V64.5C57 64.5 56.625 69.375 56.625 69.375L56.8125 78.375C56.8125 78.375 56.4375 81.75 60.375 83.0625C61.875 83.625 64.875 83.625 65.0625 82.875C65.25 82.125 61.3125 80.8125 61.3125 78.1875V69C61.3125 62.25 60.375 59.8125 57.1875 57.75C67.125 56.8125 73.3125 54.375 76.3125 47.8125C78.1875 44.0625 78.5625 39.5625 78.5625 36.1875C78.5625 26.8125 74.0625 23.625 73.125 21.9375C74.4375 14.8125 72.9375 11.625 72.1875 10.6875C69.5625 9.74998 63.1875 12.9375 59.8125 15.1875C54.1875 13.5 42.1875 13.6875 37.6875 15.5625C29.4375 9.74999 25.125 10.6875 25.125 10.6875C25.125 10.6875 22.3125 15.75 24.375 23.0625C21.5625 26.4375 19.6875 28.875 19.5 35.25C19.5 40.3125 20.0625 43.5 22.3125 47.8125Z" fill="white"/>
</svg>
