<svg width="96" height="78" viewBox="0 0 96 78" fill="none" xmlns="http://www.w3.org/2000/svg">
<path d="M61.092 21.342L64.167 21.3945L72.522 13.0395L72.927 9.4995C66.3 3.5955 57.5505 0 47.9895 0C30.6795 0 16.0695 11.778 11.745 27.732C12.657 27.096 14.607 27.573 14.607 27.573L31.302 24.828C31.302 24.828 32.16 23.4075 32.595 23.478C34.5472 21.3333 36.9259 19.62 39.5787 18.4481C42.2315 17.2762 45.0999 16.6714 48 16.6725C52.95 16.683 57.51 18.432 61.092 21.3255V21.342Z" fill="black" fill-opacity="0.6"/>
<path d="M84.255 27.765C82.3155 20.61 78.318 14.292 72.9225 9.49951L61.092 21.33C65.832 25.155 68.8725 31.008 68.8725 37.56V39.648C74.628 39.648 79.3035 44.334 79.3035 50.079C79.3035 55.8345 74.6175 60.51 68.8725 60.51H48.0105L45.9225 62.61V75.129L48.0105 77.2065H68.8725C76.0638 77.1966 82.9578 74.3355 88.043 69.2506C93.1282 64.1657 95.9897 57.2719 96 50.0805C95.9895 40.848 91.35 32.6805 84.255 27.7665V27.765Z" fill="black" fill-opacity="0.5"/>
<path d="M27.1275 77.22H47.9775V60.51H27.1275C25.6462 60.5103 24.1821 60.1921 22.8345 59.577L19.824 60.4995L11.469 68.8545L10.737 71.6745C15.4453 75.2664 21.204 77.2108 27.126 77.208L27.1275 77.22Z" fill="black" fill-opacity="0.55"/>
<path d="M27.1275 22.965C19.9361 22.9749 13.0421 25.8359 7.95695 30.9209C2.87175 36.0058 0.0103176 42.8996 0 50.091C0 58.9005 4.2195 66.7335 10.749 71.6955L22.845 59.5995C21.0141 58.7739 19.4602 57.4377 18.3697 55.7512C17.2791 54.0647 16.6982 52.0994 16.6965 50.091C16.6965 44.3355 21.3825 39.66 27.1275 39.66C31.3575 39.66 34.9935 42.21 36.6375 45.81L48.7335 33.714C43.773 27.1845 35.9385 22.965 27.129 22.965H27.1275Z" fill="black" fill-opacity="0.4"/>
</svg>
