<svg width="86" height="96" viewBox="0 0 86 96" fill="none" xmlns="http://www.w3.org/2000/svg">
<path d="M7.77433 73.1638L4.25433 71.1286L43.5119 3.13495L47.0319 5.17015L7.77433 73.1638Z" fill="black" fill-opacity="0.5"/>
<path d="M3.44473 65.695H81.9663V69.7654H3.44473V65.695Z" fill="black" fill-opacity="0.5"/>
<path d="M44.2735 90.6614L4.99994 67.9862L7.03514 64.4662L46.3087 87.1414L44.2735 90.6614ZM78.392 31.5574L39.1151 8.88536L41.1503 5.36536L80.424 28.0406L78.392 31.5574Z" fill="black" fill-opacity="0.5"/>
<path d="M7.04475 31.5446L5.00955 28.0246L44.3184 5.34296L46.3536 8.86296L7.04475 31.5446Z" fill="black" fill-opacity="0.5"/>
<path d="M77.6688 73.1638L38.4048 5.1638L41.9248 3.1286L81.1888 71.1286L77.6688 73.1638ZM6.55835 25.3238H10.6288V70.6742H6.55835V25.3238ZM74.808 25.3238H78.8783V70.6742H74.808V25.3238Z" fill="black" fill-opacity="0.5"/>
<path d="M43.5823 88.9365L41.8063 85.8581L75.9663 66.1365L77.7423 69.2149L43.5823 88.9365Z" fill="black" fill-opacity="0.5"/>
<path d="M84.2703 71.9984C83.1332 73.9622 81.2641 75.3952 79.0725 75.9836C76.8808 76.572 74.5453 76.2678 72.5775 75.1376C70.6137 74.0005 69.1807 72.1314 68.5923 69.9397C68.0039 67.7481 68.3081 65.4126 69.4383 63.4448C70.5755 61.481 72.4446 60.048 74.6362 59.4596C76.8278 58.8712 79.1633 59.1754 81.1311 60.3056C85.2495 62.6832 86.6479 67.9056 84.2671 71.9984H84.2703ZM15.9727 32.5552C14.8356 34.519 12.9665 35.952 10.7748 36.5404C8.58321 37.1288 6.2477 36.8246 4.27992 35.6944C2.31528 34.5573 0.881616 32.6876 0.293175 30.4952C-0.295267 28.3028 0.00951567 25.9665 1.14072 23.9984C2.27785 22.0346 4.14695 20.6016 6.33859 20.0132C8.53023 19.4248 10.8657 19.729 12.8335 20.8592C14.7973 21.9963 16.2303 23.8654 16.8187 26.0571C17.4071 28.2487 17.1029 30.5842 15.9727 32.552V32.5552ZM1.16632 71.9984C0.0361281 70.0306 -0.26809 67.6951 0.320306 65.5035C0.908702 63.3118 2.34174 61.4427 4.30552 60.3056C6.2733 59.1754 8.60881 58.8712 10.8004 59.4596C12.9921 60.048 14.8612 61.481 15.9983 63.4448C17.1285 65.4126 17.4327 67.7481 16.8443 69.9397C16.2559 72.1314 14.8229 74.0005 12.8591 75.1376C8.74072 77.4896 3.51512 76.0976 1.16632 72.0016V71.9984ZM69.4639 32.5584C68.3337 30.5906 68.0295 28.2551 68.6179 26.0635C69.2063 23.8718 70.6394 22.0027 72.6031 20.8656C74.5709 19.7354 76.9064 19.4312 79.0981 20.0196C81.2897 20.608 83.1588 22.041 84.2959 24.0048C85.4261 25.9726 85.7303 28.3081 85.1419 30.4997C84.5536 32.6914 83.1205 34.5605 81.1567 35.6976C79.1889 36.8278 76.8534 37.132 74.6618 36.5436C72.4702 35.9552 70.6011 34.5222 69.4639 32.5584ZM42.7183 95.9984C41.0258 95.9984 39.3713 95.4965 37.9641 94.5561C36.5569 93.6157 35.4601 92.2791 34.8126 90.7154C34.165 89.1517 33.9958 87.431 34.3262 85.7711C34.6566 84.1111 35.4719 82.5865 36.6689 81.3899C37.8659 80.1933 39.3909 79.3786 41.0509 79.0488C42.711 78.719 44.4316 78.8889 45.9951 79.5371C47.5586 80.1852 48.8948 81.2824 49.8346 82.69C50.7745 84.0976 51.2758 85.7523 51.2751 87.4448C51.2692 89.7121 50.3657 91.8848 48.7622 93.4877C47.1586 95.0906 44.9856 95.9933 42.7183 95.9984ZM42.7183 17.112C41.5942 17.1137 40.4807 16.8935 39.4418 16.4641C38.4029 16.0347 37.4589 15.4044 36.664 14.6095C35.8691 13.8146 35.2389 12.8707 34.8094 11.8317C34.38 10.7928 34.1598 9.67937 34.1615 8.5552C34.1615 6.28622 35.0629 4.11017 36.6673 2.50576C38.2717 0.901349 40.4477 0 42.7167 0C44.9857 0 47.1618 0.901349 48.7662 2.50576C50.3706 4.11017 51.2719 6.28622 51.2719 8.5552C51.2732 9.67883 51.0528 10.7917 50.6234 11.83C50.194 12.8684 49.564 13.8118 48.7694 14.6063C47.9749 15.4009 47.0315 16.0309 45.9931 16.4603C44.9548 16.8897 43.842 17.1101 42.7183 17.1088" fill="black" fill-opacity="0.5"/>
</svg>
