<svg width="81" height="96" viewBox="0 0 81 96" fill="none" xmlns="http://www.w3.org/2000/svg">
<path d="M39.9836 89.8895C57.9819 89.8895 72.5723 75.299 72.5723 57.3008C72.5723 39.3026 57.9819 24.7122 39.9836 24.7122C21.9854 24.7122 7.39499 39.3026 7.39499 57.3008C7.39499 75.299 21.9854 89.8895 39.9836 89.8895Z" fill="white" fill-opacity="0.5"/>
<path d="M53.0192 67.0776L40.7984 43.0434C39.5763 41.0067 37.1322 40.1919 35.0954 41.0067C33.0586 42.2287 32.2439 44.6729 33.0586 46.7096L38.3542 56.4862L29.3924 65.4482C28.6102 66.2731 28.1742 67.3665 28.1742 68.5033C28.1742 69.6401 28.6102 70.7336 29.3924 71.5585C30.163 72.2986 31.1765 72.733 32.2439 72.7805C33.466 72.7805 34.2807 72.3732 35.0954 71.5585L42.4278 64.2261L45.2793 70.3365C46.094 71.9659 47.7235 72.7805 48.9456 72.7805C49.7603 72.7805 50.1677 72.7806 50.9824 72.3733C53.4265 71.9659 54.2412 69.5217 53.0192 67.0776ZM69.3135 0.678226C66.8693 2.30766 70.9429 16.1578 61.1663 24.7123C55.056 20.6388 47.7235 18.1946 39.9837 18.1946C32.2439 18.1946 24.9114 20.6387 18.801 24.305C9.02445 16.1578 13.098 1.90028 10.6539 0.270843C6.5803 -2.17331 -0.752106 12.4916 0.0626103 21.4535C0.469968 26.3418 1.69199 33.6742 5.35822 39.3773C2.50671 44.6729 1.28464 50.3759 1.28464 56.8936C1.28464 78.4836 18.8011 96 40.391 96C61.981 96 79.4974 78.4836 79.4974 56.8936C79.4974 50.7832 77.868 44.6729 75.4239 39.3773C79.0901 33.6742 80.3121 26.3418 80.7195 21.4535C80.7195 12.4916 73.3871 -1.76592 69.3135 0.678226ZM39.9837 87.4455C23.282 87.4455 9.83918 74.0026 9.83918 56.8936C9.83918 40.1919 23.282 26.7491 39.9837 26.7491C56.6853 26.7491 70.5355 40.1919 70.5355 56.8936C70.5355 74.0026 56.6853 87.4455 39.9837 87.4455Z" fill="black" fill-opacity="0.5"/>
</svg>
