<svg width="52" height="84" viewBox="0 0 52 84" fill="none" xmlns="http://www.w3.org/2000/svg">
<path d="M5.70436 83.6237V76.3216C5.70436 75.8068 5.33914 75.5846 4.90872 75.5846C4.04584 75.5846 2.96806 75.8068 1.98981 76.2525V83.6237H0V70.0655H1.98961V74.5384C2.93536 74.179 4.0627 73.8707 5.19045 73.8707C6.99786 73.8707 7.67792 75.019 7.67792 76.5951V83.6237H5.70436V83.6237ZM11.3917 79.2013C11.4579 81.6524 11.9224 82.1326 13.3811 82.1326C14.5255 82.1326 15.819 81.738 16.8143 81.3437L17.1458 82.8861C16.0843 83.3837 14.791 83.8634 13.2492 83.8634C9.9322 83.8634 9.41789 81.9784 9.41789 78.9782C9.41789 77.3331 9.53428 75.8416 9.91555 74.4704C10.9105 74.0761 12.2373 73.8705 13.9116 73.8705C16.6321 73.8705 17.4608 75.4305 17.4608 78.1558V79.2013H11.3917V79.2013ZM13.9116 75.5846C13.3155 75.5846 12.3699 75.6018 11.5905 75.7553C11.508 76.1668 11.4079 76.7327 11.3748 77.7785H15.5206C15.5206 76.3554 15.2717 75.5846 13.9116 75.5846ZM21.191 76.2525V83.6237H19.201V75.3272C20.876 74.3847 22.6503 74.0933 23.8115 74.0076V75.7217C22.999 75.7902 21.9704 75.893 21.1912 76.2525H21.191ZM29.0678 83.8634C26.0989 83.8634 24.7559 82.3553 24.7559 78.9097C24.7559 75.2588 26.5302 73.8707 29.0678 73.8707C32.0359 73.8707 33.3793 75.3786 33.3793 78.824C33.3793 82.4752 31.6046 83.8634 29.0678 83.8634ZM29.0678 75.5848C27.5419 75.5848 26.6963 76.4929 26.6963 78.9097C26.6963 81.5497 27.4093 82.1326 29.0678 82.1326C30.5933 82.1326 31.4391 81.2409 31.4391 78.824C31.4391 76.184 30.7261 75.5846 29.0678 75.5846V75.5848ZM42.9798 83.6237H40.6413C40.0944 82.1153 39.3311 80.5726 38.1538 79.2356H37.1089V83.6237H35.1191V70.0655H37.1089V77.8469H38.0378C39.0494 76.7669 39.8285 75.4305 40.376 74.1103H42.6144C41.8519 75.7045 40.8736 77.11 39.779 78.2584C41.0891 79.9725 42.1172 81.7895 42.9796 83.6237H42.9798ZM46.7098 83.8634C44.9026 83.8634 44.2228 82.7154 44.2228 81.1382V74.1103H46.1959V81.3952C46.1959 81.91 46.5603 82.1326 46.9915 82.1326C47.854 82.1326 49.0313 81.91 50.01 81.464V74.1103H52V82.3721C49.6452 83.7093 47.8374 83.8634 46.7098 83.8634V83.8634ZM45.8307 66.6096H6.14616C2.75133 66.6096 0 63.7657 0 60.2573V6.35247C0 2.84408 2.75153 0 6.14595 0H45.8305C49.2247 0 51.977 2.84408 51.977 6.35247V60.2573C51.977 63.7657 49.2247 66.6096 45.8305 66.6096H45.8307Z" fill="black" fill-opacity="0.5"/>
<path d="M32.5731 57.4443V30.9918C32.5731 30.9918 34.2377 24.6616 12.0691 33.5814C12.0285 33.6946 12.0285 9.12053 12.0285 9.12053L19.2719 9.07434V24.8192C19.2719 24.8192 39.5531 16.5627 39.5531 31.081V57.4443H32.5733H32.5731ZM36.7006 18.6035H29.0176C31.7832 15.1085 34.2867 9.12032 34.2867 9.12032H42.2309C42.2309 9.12032 40.8708 13.0228 36.7008 18.6035H36.7006ZM12.1601 57.3985V42.3345L19.4478 49.8671L12.1601 57.3985V57.3985Z" fill="white"/>
</svg>
