<svg width="85" height="96" viewBox="0 0 85 96" fill="none" xmlns="http://www.w3.org/2000/svg">
<path d="M7.704 86.403L0 0H84.648L76.938 86.391L42.27 95.997L7.704 86.403Z" fill="black" fill-opacity="0.5"/>
<path d="M70.335 80.889L76.926 7.065H42.324V88.656L70.335 80.889Z" fill="black" fill-opacity="0.4"/>
<path d="M42.288 17.661H15.75L18.609 49.707H42.324V39.111H28.302L27.333 28.26H42.324V17.661H42.288ZM42.324 66.597L42.279 66.609L30.477 63.423L29.727 54.972H19.083L20.568 71.61L42.276 77.61L42.324 77.595V66.597Z" fill="#EBEBEB"/>
<path d="M42.288 49.707H55.338L54.138 63.447L42.318 66.636V77.661L64.044 71.64L66.954 39.105H42.324L42.288 49.707ZM68.58 20.505L68.832 17.661H42.282V28.257H67.878L68.088 25.875L68.58 20.505Z" fill="white"/>
</svg>
