<svg width="46" height="51" viewBox="0 0 46 51" fill="none" xmlns="http://www.w3.org/2000/svg">
<path d="M35.6129 27.4594C35.6129 28.6464 36.4847 29.6129 37.5553 29.6129C37.855 29.6129 38.1563 29.5339 38.4241 29.3859L41.9594 27.4265C42.6205 27.0588 43.0323 26.3201 43.0323 25.5C43.0323 24.6791 42.6205 23.9404 41.9587 23.5735L38.4241 21.6141C38.1563 21.4661 37.855 21.3871 37.5553 21.3871C36.4847 21.3871 35.6129 22.3528 35.6129 23.5406V27.4594ZM37.0968 23.5406C37.0968 23.2601 37.3023 23.0323 37.5553 23.0323C37.6265 23.0323 37.697 23.0504 37.7601 23.0857L41.2946 25.0451C41.4512 25.1323 41.5484 25.3059 41.5484 25.5C41.5484 25.6933 41.4512 25.8677 41.2946 25.9549L37.7601 27.9143C37.4737 28.0771 37.0968 27.818 37.0968 27.4594V23.5406ZM39.3226 32.9032C43.0048 32.9032 46 29.5825 46 25.5C46 21.4184 43.0048 18.0968 39.3226 18.0968C38.0131 18.0968 36.7941 18.5229 35.762 19.2484L33.1022 15.5624C34.4792 14.0941 35.3933 12.0993 35.5758 9.87097H37.3802H38.1221L39.606 13.1613H45.7166L43.8617 9.04839L45.7166 4.93548H39.606L38.1221 8.22581H37.3802H35.5758C35.1989 3.621 31.7014 0 27.4516 0C25.464 0 23.6425 0.79379 22.2254 2.10745C22.0659 0.918 21.1481 0 20.0323 0H11.129C10.163 0 9.3469 0.690145 9.03974 1.64516H3.70968C1.66416 1.64516 0 3.49021 0 5.75806V46.8871C0 49.155 1.66416 51 3.70968 51H27.4516C29.4971 51 31.1613 49.155 31.1613 46.8871V44.4194H42.2903C44.3358 44.4194 46 42.5743 46 40.3065C46 38.0386 44.3358 36.1935 42.2903 36.1935H31.1613V17.0982C31.4314 16.9443 31.694 16.779 31.9455 16.5939L34.5994 20.2717C33.393 21.6117 32.6452 23.4608 32.6452 25.5C32.6452 29.5825 35.6404 32.9032 39.3226 32.9032ZM40.523 11.5161L39.7811 9.87097H41.5484H42.5737L43.3157 11.5161H40.523ZM40.523 6.58065H43.3157L42.5737 8.22581H41.5484H39.7811L40.523 6.58065ZM27.4516 1.64516C30.8831 1.64516 33.715 4.52995 34.0853 8.22581H31.0864C30.7414 6.35115 29.2426 4.93548 27.4516 4.93548C25.4061 4.93548 23.7419 6.78053 23.7419 9.04839C23.7419 11.3162 25.4061 13.1613 27.4516 13.1613C29.2426 13.1613 30.7414 11.7456 31.0864 9.87097H34.0853C33.715 13.5668 30.8831 16.4516 27.4516 16.4516C23.7694 16.4516 20.7742 13.13 20.7742 9.04839C20.7742 4.96674 23.7694 1.64516 27.4516 1.64516ZM29.5409 9.87097C29.2337 10.826 28.4176 11.5161 27.4516 11.5161C26.2245 11.5161 25.2258 10.4089 25.2258 9.04839C25.2258 7.68784 26.2245 6.58065 27.4516 6.58065C28.4176 6.58065 29.2337 7.27079 29.5409 8.22581H26.7097V9.87097H29.5409ZM23.7419 42.7742V41.129H38.5806V42.7742H23.7419ZM22.2581 42.4098L18.0201 40.6486C17.8925 40.5952 17.8065 40.4578 17.8065 40.3065C17.8065 40.1551 17.8925 40.0177 18.0201 39.9651L22.2581 38.2031V42.4098ZM38.5806 39.4839H23.7419V37.8387H38.5806V39.4839ZM22.865 36.1935L17.4985 38.4252C16.7952 38.718 16.3226 39.474 16.3226 40.3065C16.3226 41.1389 16.7952 41.8949 17.4985 42.1885L22.865 44.4194H26.7097V46.0645H4.45161V6.58065H9.03974C9.3469 7.53566 10.163 8.22581 11.129 8.22581H19.3282C19.3059 8.49726 19.2903 8.77035 19.2903 9.04839C19.2903 11.6831 20.3179 14.0513 21.9442 15.7064L20.8128 17.3523C19.3037 16.2665 17.5097 15.629 15.5806 15.629C10.2625 15.629 5.93548 20.4263 5.93548 26.3226C5.93548 32.2188 10.2625 37.0161 15.5806 37.0161C20.8988 37.0161 25.2258 32.2188 25.2258 26.3226C25.2258 23.1548 23.9697 20.3128 21.9895 18.3534L23.1224 16.705C24.1812 17.4436 25.3994 17.9232 26.7097 18.0548V36.1935H22.865ZM19.2903 30.4355H17.8065V23.8548H19.2903V30.4355ZM16.3226 30.4355H14.8387V25.5V22.2097H16.3226V30.4355ZM13.3548 30.4355H11.871V27.1452H13.3548V30.4355ZM21.8715 32.0806C20.3735 34.0886 18.1099 35.371 15.5806 35.371C13.0514 35.371 10.7885 34.0886 9.28977 32.0806H21.8715ZM22.8412 30.4355H20.7742V22.2097H17.8065V20.5645H13.3548V25.5H10.3871V30.4355H8.32006C7.74877 29.2 7.41935 27.804 7.41935 26.3226C7.41935 21.3336 11.0808 17.2742 15.5806 17.2742C20.0805 17.2742 23.7419 21.3336 23.7419 26.3226C23.7419 27.804 23.4125 29.2 22.8412 30.4355V30.4355ZM10.3871 2.46774C10.3871 2.0145 10.7195 1.64516 11.129 1.64516H20.0323C20.4418 1.64516 20.7742 2.0145 20.7742 2.46774V3.86202C20.2563 4.67884 19.8601 5.59355 19.6079 6.57653L11.129 6.58065C10.7195 6.58065 10.3871 6.21131 10.3871 5.75806V2.46774ZM29.6774 46.8871C29.6774 48.2476 28.6788 49.3548 27.4516 49.3548H3.70968C2.48252 49.3548 1.48387 48.2476 1.48387 46.8871V5.75806C1.48387 4.39752 2.48252 3.29032 3.70968 3.29032H8.90323V4.93548H4.45161C3.63326 4.93548 2.96774 5.67334 2.96774 6.58065V46.0645C2.96774 46.9718 3.63326 47.7097 4.45161 47.7097H26.7097C27.528 47.7097 28.1935 46.9718 28.1935 46.0645V44.4194H29.6774V46.8871ZM44.5161 40.3065C44.5161 41.667 43.5175 42.7742 42.2903 42.7742H40.0645V37.8387H42.2903C43.5175 37.8387 44.5161 38.9459 44.5161 40.3065ZM29.6774 36.1935H28.1935V18.0548C28.7033 18.0038 29.1989 17.8969 29.6774 17.7455V36.1935ZM44.5161 25.5C44.5161 28.6743 42.1857 31.2581 39.3226 31.2581C36.4595 31.2581 34.129 28.6743 34.129 25.5C34.129 22.3248 36.4595 19.7419 39.3226 19.7419C42.1857 19.7419 44.5161 22.3248 44.5161 25.5ZM5.93548 39.4839H14.8387V41.129H5.93548V39.4839ZM5.93548 42.7742H14.8387V44.4194H5.93548V42.7742ZM7.41935 11.5161H5.93548V9.87097H7.41935V11.5161ZM17.8065 11.5161H8.90323V9.87097H17.8065V11.5161ZM7.41935 14.8065H5.93548V13.1613H7.41935V14.8065ZM17.8065 14.8065H8.90323V13.1613H17.8065V14.8065Z" fill="white"/>
</svg>
