<svg width="96" height="96" viewBox="0 0 96 96" fill="none" xmlns="http://www.w3.org/2000/svg">
<path d="M5.64681 16.0704V56.4689L11.2929 52.5592V19.9797L5.64681 16.0704Z" fill="#949494"/>
<path d="M0.000374949 52.5587V3.90796L33.5254 27.3647V35.6184L5.6468 16.0704V56.4689L0 52.5587H0.000374949Z" fill="#EFEFEF"/>
<path d="M67.7564 3.90747V52.5587L45.1711 68.1966L39.5246 63.8526L62.1103 48.2147V15.6356L33.5254 35.6179V27.3642L67.7568 3.90793L67.7564 3.90747Z" fill="#949494"/>
<path d="M62.1104 0L33.8786 19.5475L5.6468 0L0 3.90923L33.5254 27.3665L67.7568 3.91015L62.1096 0.000461539L62.1104 0Z" fill="#D6D6D6"/>
<path d="M56.4639 19.5454V44.3055L62.1104 48.2147V15.6366L56.4635 19.5458L56.4639 19.5454Z" fill="#EFEFEF"/>
<path d="M28.2321 63.8532L56.4639 44.3057L62.1104 48.2149L39.5246 63.8532L61.7575 79.4915L84.3429 63.8532L89.9893 67.7624L61.7575 87.3104L28.2321 63.8532Z" fill="#D6D6D6"/>
<path d="M28.2321 63.8531V72.1068L61.7575 95.5636V87.3103L28.2321 63.8526V63.8531ZM89.9893 67.7628V43.4369L84.3425 39.5277V63.8531L89.9893 67.7623V67.7628Z" fill="#EFEFEF"/>
<path d="M61.7572 87.3103L89.9893 67.7628V43.4369L95.6357 39.5277V72.1068L61.7575 95.5636V87.3103H61.7572Z" fill="#949494"/>
<path d="M95.6357 39.5271L89.9889 43.4364L84.3429 39.5271L89.9893 35.6179L95.6357 39.5271Z" fill="#D6D6D6"/>
<path d="M89.9893 35.618V27.3643L95.6357 23.4551V31.7083L89.9889 35.6175L89.9893 35.618Z" fill="#949494"/>
<path d="M89.9893 27.3643V35.618L84.3425 31.7087V23.4546L89.9893 27.3638V27.3643Z" fill="#EFEFEF"/>
<path d="M95.6357 23.4551L89.9889 27.3644L84.3429 23.4551L89.9893 19.5459L95.6357 23.4551Z" fill="#D6D6D6"/>
</svg>
