<svg width="72" height="80" viewBox="0 0 72 80" fill="none" xmlns="http://www.w3.org/2000/svg">
<path d="M72 26.6C72 67.6 36 80 36 80C36 80 0 67.6 0 26.6C0 21.6 0.4 17.4 0.8 14C1.4 9 4.8 5 9.6 3.8C15.8 2 25.6 0 36 0C46.4 0 56.2 2 62.6 3.8C67.4 5 70.8 9.2 71.4 14C71.6 17.4 72 21.8 72 26.6Z" fill="black" fill-opacity="0.5"/>
<path d="M36 6C45.8 6 55 8 61 9.6C63.4 10.2 65 12.2 65.4 14.8C65.8 18.6 66 22.6 66 26.6C66 57.8 43 70.4 36 73.4C29 70.2 6 57.6 6 26.6C6 22.6 6.2 18.6 6.6 14.8C6.8 12.2 8.6 10.2 11 9.6C17 8 26.2 6 36 6ZM36 0C25.6 0 15.8 2 9.4 3.8C4.8 5 1.2 9.2 0.8 14C0.4 17.4 0 21.8 0 26.6C0 67.6 36 80 36 80C36 80 72 67.6 72 26.6C72 21.6 71.6 17.4 71.2 14C70.6 9 67.2 5 62.4 3.8C56.2 2 46.4 0 36 0Z" fill="white" fill-opacity="0.5"/>
<path d="M34 48H38V64H34V48Z" fill="#DCEDC8"/>
<path d="M36 12C36 12 24 22 24 38C24 48.4 30.6 55 34 58L36 52L38 58C41.4 55 48 48.4 48 38C48 22 36 12 36 12Z" fill="white" fill-opacity="0.5"/>
<path d="M36 12C36 12 24 22 24 38C24 48.4 30.6 55 34 58L36 52V12Z" fill="white" fill-opacity="0.5"/>
</svg>
