<svg width="96" height="90" viewBox="0 0 96 90" fill="none" xmlns="http://www.w3.org/2000/svg">
<path d="M22.614 23.4729H40.6906V25.7095H24.2714V42.5411H39.7113V44.7778H24.2714V63.2573H40.8788V65.494H22.614V23.4729ZM42.3097 23.4729H44.2306L52.7416 41.9525L61.4408 23.4729L73.2731 0L53.8338 43.8948L63.851 65.494H61.8548L52.7416 45.8371L43.5907 65.494H41.6322L51.7247 43.8948L42.3103 23.4729H42.3097ZM64.5668 25.7095V23.4729H85.1658V25.7095H75.6762V65.493H74.0188V25.7095H64.5674H64.5668ZM0 23.4729H2.07145L30.6325 90L18.8293 65.494L1.73205 26.651L1.65677 65.494H0V23.4729ZM84.9997 62.582C84.6603 62.582 84.4065 62.1738 84.4065 61.6466C84.4065 61.1185 84.6603 60.7103 84.999 60.7103C85.3417 60.7103 85.5915 61.1185 85.5915 61.6466C85.5915 62.1738 85.3417 62.582 84.999 62.582H84.9997ZM86.6272 60.1196H87.5144C87.5267 60.8675 87.8778 61.3695 88.393 61.3695C88.9693 61.3695 89.2957 60.8302 89.2957 59.8182V53.4118H90.1984V59.8243C90.1984 61.6467 89.5216 62.6959 88.4008 62.6959C87.3495 62.6959 86.6279 61.6779 86.6279 60.1196H86.6272ZM91.3789 60.039H92.2738C92.3503 60.8988 92.8903 61.4451 93.6684 61.4451C94.3932 61.4451 94.9254 60.8605 94.9254 60.0571C94.9254 59.3667 94.5873 58.9514 93.817 58.6692L93.0674 58.387C92.0161 58.004 91.5359 57.2117 91.5359 55.8802C91.5359 54.2655 92.3821 53.191 93.6515 53.191C94.8326 53.191 95.6957 54.2655 95.7476 55.7915H94.8689C94.7846 54.9569 94.3173 54.4348 93.6398 54.4348C92.926 54.4348 92.4509 54.969 92.4509 55.7855C92.4509 56.4326 92.7572 56.8035 93.5152 57.0797L94.1557 57.3246C95.3485 57.758 95.8404 58.512 95.8404 59.8747C95.8404 61.6083 94.9773 62.6959 93.5996 62.6959C92.3101 62.6959 91.4431 61.6587 91.3789 60.038V60.039Z" fill="black" fill-opacity="0.5"/>
</svg>
