<svg width="87" height="96" viewBox="0 0 87 96" fill="none" xmlns="http://www.w3.org/2000/svg">
<path d="M39.4801 1.0215C41.8801 -0.337499 44.9401 -0.343499 47.2801 1.0215L83.1121 21.2205C85.3531 22.4805 86.8531 24.9795 86.8321 27.5625V68.0625C86.8471 70.7535 85.2001 73.3065 82.8361 74.5425L47.1961 94.6485C45.9771 95.3221 44.6 95.6571 43.2077 95.6186C41.8155 95.5801 40.459 95.1695 39.2791 94.4295L28.5841 88.2495C27.8551 87.8145 27.0361 87.4695 26.5201 86.7645C26.9761 86.1525 27.7861 86.0745 28.4461 85.8045C29.9341 85.3305 31.2961 84.6045 32.6641 83.8365C33.0091 83.5965 33.4321 83.6865 33.7621 83.9025L42.8821 89.1765C43.5331 89.5515 44.1931 89.0565 44.7511 88.7415L79.7461 68.9925C80.1781 68.7825 80.4181 68.3265 80.3821 67.8525V27.7425C80.4301 27.2025 80.1211 26.7105 79.6321 26.4915L44.0821 6.4725C43.8772 6.3308 43.6342 6.25465 43.3851 6.25411C43.136 6.25358 42.8926 6.32869 42.6871 6.4695L7.1881 26.5305C6.7081 26.7495 6.3781 27.2355 6.4381 27.7755V67.8855C6.3961 68.3595 6.6481 68.8065 7.0831 69.0105L16.5691 74.3655C18.3511 75.3255 20.5381 75.8655 22.5001 75.1605C23.3587 74.8369 24.0978 74.2586 24.6185 73.5031C25.1391 72.7476 25.4164 71.851 25.4131 70.9335L25.4221 31.0635C25.3801 30.4725 25.9381 29.9835 26.5111 30.0435H31.0711C31.6711 30.0285 32.1421 30.6645 32.0611 31.2585L32.0521 71.3805C32.0551 74.9445 30.5911 78.8205 27.2941 80.5695C23.2321 82.6695 18.2101 82.2285 14.1961 80.2095L3.9961 74.5695C1.5961 73.3695 -0.0148961 70.7775 0.000103865 68.0895V27.5895C0.0100829 26.2732 0.371954 24.9835 1.0482 23.8541C1.72445 22.7248 2.69047 21.7968 3.8461 21.1665L39.4801 1.0215ZM49.8121 29.0955C54.9931 28.7955 60.5401 28.8975 65.2021 31.4505C68.8111 33.4065 70.8121 37.5105 70.8781 41.5245C70.7761 42.0645 70.2121 42.3645 69.6961 42.3255C68.1961 42.3225 66.6901 42.3465 65.1841 42.3165C64.5451 42.3405 64.1761 41.7525 64.0951 41.1885C63.6631 39.2685 62.6161 37.3695 60.8101 36.4425C58.0381 35.0535 54.8221 35.1225 51.7981 35.1525C49.5901 35.2725 47.2171 35.4615 45.3481 36.7575C43.9081 37.7415 43.4761 39.7575 43.9891 41.3235C44.4691 42.4725 45.7981 42.8415 46.8811 43.1835C53.1271 44.8155 59.7421 44.6835 65.8711 46.8045C68.4061 47.6805 70.8871 49.3845 71.7571 52.0395C72.8911 55.5975 72.3961 59.8515 69.8671 62.7075C67.8151 65.0595 64.8271 66.3075 61.8421 67.0335C57.8731 67.9185 53.7571 67.9395 49.7281 67.5435C45.9391 67.1115 41.9971 66.1155 39.0721 63.5355C36.5701 61.3635 35.3521 57.9795 35.4721 54.7155C35.5021 54.1635 36.0511 53.7795 36.5821 53.8245H41.0821C41.6881 53.7825 42.1321 54.3045 42.1621 54.8745C42.4411 56.6745 43.1281 58.6245 44.7241 59.6745C47.8021 61.6605 51.6631 61.5225 55.1851 61.5795C58.1041 61.4505 61.3801 61.4115 63.7651 59.4795C65.0251 58.3785 65.3941 56.5395 65.0551 54.9555C64.6861 53.6175 63.2551 52.9965 62.0551 52.5555C55.8901 50.6055 49.2001 51.3135 43.0951 49.1055C40.6171 48.2295 38.2201 46.5735 37.2691 44.0265C35.9401 40.4265 36.5491 35.9655 39.3481 33.2055C42.0481 30.4605 46.0081 29.4015 49.7581 29.0235L49.8121 29.0955Z" fill="black" fill-opacity="0.5"/>
</svg>
