<svg width="85" height="89" viewBox="0 0 85 89" fill="none" xmlns="http://www.w3.org/2000/svg">
<path d="M84.2163 53.592C83.8503 51.934 82.3463 50 79.3123 50C78.6923 50 78.0143 50.078 77.2423 50.238C75.8263 50.53 74.6203 50.672 73.5583 50.72C81.8243 36.64 87.1903 17.082 81.8763 10.292C74.8743 1.346 65.4483 0.0100002 60.4543 0.0100002L59.9843 0.0120001C58.1263 0.0420001 56.1983 0.27 54.2583 0.69L47.0923 2.238C46.1163 2.116 45.1223 2.03 44.0863 2.012H44.0263H43.9943L43.6903 2.01C40.5043 2.01 37.5983 2.686 35.0083 3.956L32.5063 2.97C29.0663 1.614 23.8903 0 18.7703 0C18.4823 0 18.1963 0.00600027 17.9083 0.0160003C12.8643 0.198 8.53229 2.112 5.37829 5.55C1.44229 9.842 -0.349712 16.12 0.0562878 24.212C0.0762878 24.63 4.97229 66.012 18.8503 66.012H18.9003L19.0283 66.01C20.8303 65.966 22.5483 65.242 24.1543 63.856C25.3803 64.776 26.9663 65.32 28.4443 65.536C29.4203 65.766 31.1763 66.092 33.2803 66.092C35.8483 66.092 38.1643 65.566 40.1603 64.616C40.1583 66.376 40.1483 68.604 40.1283 71.452L40.1263 71.602L40.1363 71.752C40.3303 74.59 40.8203 77.148 41.5583 79.154C43.6603 84.872 47.2903 88.022 51.7803 88.022C51.9663 88.022 52.1563 88.016 52.3483 88.004C56.0403 87.776 59.7823 85.702 62.3563 82.46C65.1423 78.95 65.7863 75.246 66.0343 72.408L66.0503 72.234V72.058V63.9L66.2563 63.92L67.1283 63.996L67.2123 64.004L67.2963 64.008C67.5443 64.02 67.8003 64.024 68.0583 64.024C71.0723 64.024 74.7823 63.242 77.2903 62.076C79.6883 60.964 85.1683 57.908 84.2163 53.592Z" fill="white"/>
<path d="M62.0503 62.0121C62.0503 61.6021 62.0743 61.2601 62.0863 60.8821C62.0663 60.3801 62.0503 60.0121 62.0503 60.0121C62.0503 60.0121 62.0743 59.9941 62.1143 59.9681C62.4123 54.6221 63.8863 52.562 65.4643 51.3881C65.2443 51.0821 64.9903 50.752 64.7523 50.438C64.0863 49.564 63.2563 48.48 62.3683 47.09L62.2043 46.7741C62.0703 46.4461 61.7463 45.8801 61.3343 45.1361C58.9683 40.8561 54.0443 31.9521 57.4143 26.3281C58.8903 23.864 61.6583 22.444 65.6563 22.094C64.0223 17.448 57.9003 6.24205 44.0203 6.01205C44.0163 6.01205 44.0123 6.01205 44.0083 6.01205C31.9263 5.81605 27.9563 16.796 26.6643 23.356C28.4443 22.602 30.4763 22.144 32.3363 22.144C32.3643 22.144 32.3943 22.144 32.4223 22.144C37.0023 22.178 40.1523 24.622 41.0683 28.852C41.7383 31.956 42.0603 34.672 42.0523 37.158C42.0323 42.5961 40.9363 45.4561 39.9683 47.98L39.6603 48.7961C39.4123 49.4641 39.1503 50.0861 38.9023 50.6701C38.6503 51.2661 38.4283 51.7961 38.2663 52.2741C39.2343 52.4941 39.9943 52.8041 40.5163 53.034L40.8183 53.166C40.9123 53.2061 41.0063 53.2521 41.0923 53.3041C42.7883 54.3361 43.8443 55.9221 44.0703 57.7701C44.1923 58.766 44.1723 65.556 44.1303 71.48C44.3043 74.05 44.7403 76.208 45.3163 77.772C46.1343 80 48.1783 84.2541 52.1043 84.01C54.8443 83.84 57.4783 82.172 59.2263 79.972C61.1023 77.61 61.7943 74.998 62.0543 72.056V62.0121H62.0503Z" fill="black" fill-opacity="0.5"/>
<path d="M26.2783 51.8461C23.0523 48.48 21.4803 43.952 22.0703 39.7341C22.6403 35.6641 22.3183 31.68 22.1443 29.538C22.0863 28.824 22.0483 28.292 22.0503 27.998C22.0503 27.982 22.0543 27.968 22.0563 27.952C22.0563 27.944 22.0523 27.938 22.0523 27.93C22.2943 21.888 24.6243 12.356 31.0383 6.69005C27.9143 5.46005 22.8263 3.83805 18.0503 4.01205C10.5663 4.28405 3.32229 9.46005 4.05029 24.012C4.32429 29.472 10.4943 62.2181 18.9303 62.0121C20.1363 61.9821 21.3883 61.2081 22.6743 59.6601C24.7083 57.2141 26.6843 54.996 28.0903 53.452C27.4603 52.974 26.8523 52.446 26.2783 51.8461ZM70.0963 23.474C70.1263 23.782 70.1003 24.046 70.0523 24.29C70.1143 26.13 69.9163 27.916 69.7143 29.644C69.5663 30.916 69.4143 32.23 69.3723 33.548C69.3303 34.838 69.5123 36.1121 69.7043 37.4601C70.1543 40.6161 70.6223 44.178 68.1743 48.334C68.6243 48.926 69.0203 49.476 69.3363 50.008C78.5563 35.058 82.2723 17.286 78.7263 12.756C73.3603 5.90005 65.9323 3.91605 60.0483 4.01205C58.2063 4.04205 56.5323 4.29005 55.1023 4.60005C65.2543 9.52005 69.7763 20.064 70.0963 23.474ZM78.0503 54.154C72.7203 55.254 70.1563 54.668 68.9123 53.9021C68.7123 54.0461 68.5123 54.1681 68.3263 54.2821C67.5823 54.7321 66.4043 55.4481 66.1163 59.8461C66.2823 59.8781 66.4283 59.896 66.6083 59.934L67.4783 60.0121C70.1183 60.132 73.5763 59.3921 75.6043 58.4501C79.9743 56.4221 82.3563 53.266 78.0503 54.154ZM40.0963 58.25C40.0223 57.654 39.7003 57.1721 39.1123 56.786L38.8963 56.6921C38.1743 56.3741 37.3563 56.0121 36.0503 56.0121H36.0423C35.7883 56.0321 35.5363 56.05 35.2823 56.05C35.1783 56.05 35.0763 56.0361 34.9723 56.0321C34.0243 56.7621 32.6763 57.326 29.3403 58.0121C23.3803 59.5301 26.8983 61.322 29.1843 61.6C31.3963 62.154 36.6543 62.8281 40.1463 59.9821C40.1363 59.0861 40.1203 58.4701 40.0963 58.25Z" fill="black" fill-opacity="0.5"/>
<path d="M37.4123 31.014C36.8283 31.618 35.9063 32.146 34.8883 31.982C33.2323 31.714 31.9623 29.716 32.0543 28.966C32.1423 28.218 33.5563 27.828 35.2103 28.096C35.7843 28.19 36.3063 28.352 36.7463 28.552C36.1063 27.176 34.9483 26.382 33.1823 26.188C30.0523 25.84 26.7303 27.476 26.0623 28.382C26.0763 28.602 26.1023 28.884 26.1283 29.216C26.3143 31.51 26.6583 35.784 26.0283 40.29C25.6123 43.26 26.8143 46.628 29.1623 49.08C30.6763 50.66 32.4443 51.66 34.1883 51.956C34.4103 51 34.8063 50.068 35.2143 49.106C35.4403 48.576 35.6803 48.012 35.9063 47.402L36.2303 46.548C37.1163 44.238 38.0303 41.848 38.0483 37.142C38.0563 35.332 37.8343 33.266 37.4123 31.014ZM65.7443 38.026C65.5363 36.568 65.3223 35.058 65.3743 33.42C65.4203 31.936 65.5843 30.536 65.7423 29.182C65.8663 28.116 65.9623 27.092 66.0183 26.082C63.4403 26.296 61.7283 27.04 60.9163 28.298C61.2523 28.184 61.6323 28.094 62.0523 28.04C63.8363 27.808 65.1383 28.322 65.2883 29.314C65.3983 30.04 64.7823 30.724 64.5123 30.986C63.9583 31.524 63.2603 31.87 62.5503 31.962C62.4223 31.978 62.2923 31.986 62.1663 31.986C61.4603 31.986 60.7863 31.744 60.2683 31.386C60.4923 35.332 63.4023 40.61 64.8343 43.2C65.1403 43.754 65.3763 44.196 65.5723 44.576C66.3583 42.338 66.0683 40.298 65.7443 38.026Z" fill="black" fill-opacity="0.5"/>
</svg>
