<svg width="96" height="112" viewBox="0 0 96 112" fill="none" xmlns="http://www.w3.org/2000/svg">
<path d="M95.3676 85.328L55.5006 3.53302C54.4915 1.48224 52.3997 0.131073 50.0525 0.0137225C47.6999 -0.138568 45.4548 0.985863 44.2277 2.93107L0.987479 70.5929C-0.354892 72.6786 -0.326649 75.3265 1.05993 77.3851L22.2004 109.014C23.843 111.452 26.9501 112.556 29.8365 111.727L91.1859 94.1949C93.0548 93.6669 94.5951 92.3821 95.4082 90.6728C96.2102 88.9716 96.1965 87.0156 95.3705 85.3252L95.3676 85.328ZM86.442 88.8361L34.3834 103.708C32.7953 104.165 31.271 102.835 31.6013 101.287L50.2003 15.2472C50.5481 13.6374 52.849 13.3826 53.5764 14.8721L88.0068 85.51C88.3149 86.147 88.3186 86.8825 88.017 87.5224C87.7154 88.1623 87.1387 88.6424 86.4391 88.8361H86.442Z" fill="black" fill-opacity="0.5"/>
</svg>
