<svg width="96" height="80" viewBox="0 0 96 80" fill="none" xmlns="http://www.w3.org/2000/svg">
<path d="M96 39.8676C96 33.9377 88.0359 28.3179 75.8255 24.8329C78.6433 13.2284 77.391 3.99589 71.8728 1.04002C70.6009 0.346675 69.1137 0.0182458 67.4896 0.0182458V4.08712C68.3897 4.08712 69.1137 4.25133 69.7203 4.56152C72.3816 5.98471 73.5361 11.4038 72.636 18.3738C72.4207 20.0889 72.0685 21.8953 71.638 23.7381C67.8027 22.8623 63.6152 22.1872 59.2124 21.7493C56.5707 18.3738 53.8312 15.3084 51.0722 12.6263C57.4513 7.09772 63.4391 4.06887 67.5092 4.06887V0C62.128 0 55.0836 3.57623 47.9609 9.77989C40.8382 3.61272 33.7937 0.0729845 28.4126 0.0729845V4.14186C32.4631 4.14186 38.4704 7.15246 44.8496 12.6445C42.1101 15.3267 39.3706 18.3738 36.768 21.7493C32.3457 22.1872 28.1582 22.8623 24.3229 23.7564C23.8728 21.9318 23.5402 20.1619 23.3053 18.465C22.3856 11.495 23.5206 6.07594 26.1623 4.6345C26.7493 4.30607 27.5124 4.1601 28.4126 4.1601V0.0912303C26.7689 0.0912303 25.2817 0.419659 23.9902 1.11301C18.4916 4.06887 17.2589 13.2831 20.0962 24.8511C7.92499 28.3544 0 33.9559 0 39.8676C0 45.7976 7.96412 51.4174 20.1745 54.9024C17.3567 66.5069 18.6091 75.7394 24.1272 78.6953C25.3991 79.3886 26.8863 79.717 28.53 79.717C33.9111 79.717 40.9556 76.1408 48.0783 69.9372C55.201 76.1043 62.2454 79.6441 67.6266 79.6441C69.2703 79.6441 70.7574 79.3156 72.0489 78.6223C77.5475 75.6664 78.7803 66.4522 75.9429 54.8842C88.075 51.3992 96 45.7794 96 39.8676ZM70.5226 27.6975C69.7986 30.0513 68.8985 32.478 67.881 34.9047C67.0787 33.445 66.2373 31.9853 65.3176 30.5257C64.4174 29.066 63.4586 27.6428 62.4998 26.2561C65.2784 26.6392 67.9592 27.1136 70.5226 27.6975ZM61.5605 47.1296C60.0342 49.5928 58.4688 51.9283 56.8447 54.0996C53.9291 54.3368 50.9743 54.4645 48 54.4645C45.0453 54.4645 42.0905 54.3368 39.1945 54.1178C37.5703 51.9465 35.9853 49.6293 34.459 47.1843C32.9719 44.7941 31.6217 42.3674 30.3889 39.9224C31.6021 37.4774 32.9719 35.0324 34.4395 32.6422C35.9658 30.179 37.5312 27.8435 39.1553 25.6722C42.0709 25.435 45.0257 25.3073 48 25.3073C50.9548 25.3073 53.9095 25.435 56.8055 25.654C58.4297 27.8252 60.0147 30.1425 61.541 32.5875C63.0281 34.9777 64.3783 37.4044 65.6111 39.8494C64.3783 42.2944 63.0281 44.7393 61.5605 47.1296ZM67.881 44.7576C68.9376 47.2026 69.8378 49.6475 70.5813 52.0195C68.0179 52.6034 65.3176 53.096 62.5194 53.4792C63.4782 52.0743 64.437 50.6328 65.3371 49.1549C66.2373 47.6952 67.0787 46.2173 67.881 44.7576ZM48.0391 64.2261C46.2193 62.4745 44.3995 60.5222 42.5993 58.3874C44.3604 58.4604 46.1606 58.5151 47.9804 58.5151C49.8198 58.5151 51.6396 58.4786 53.4203 58.3874C51.6592 60.5222 49.8394 62.4745 48.0391 64.2261ZM33.4806 53.4792C30.702 53.096 28.0212 52.6216 25.4578 52.0378C26.1818 49.684 27.0819 47.2573 28.0995 44.8306C28.9018 46.2903 29.7432 47.7499 30.6629 49.2096C31.5826 50.6693 32.5218 52.0925 33.4806 53.4792ZM47.9413 15.5092C49.7611 17.2608 51.5809 19.2131 53.3812 21.3479C51.6201 21.2749 49.8198 21.2202 48 21.2202C46.1606 21.2202 44.3408 21.2567 42.5601 21.3479C44.3212 19.2131 46.1411 17.2608 47.9413 15.5092ZM33.4611 26.2561C32.5022 27.661 31.5434 29.1025 30.6433 30.5804C29.7432 32.0401 28.9018 33.4998 28.0995 34.9595C27.0428 32.5145 26.1427 30.0695 25.3991 27.6975C27.9625 27.1319 30.6629 26.6392 33.4611 26.2561ZM15.7521 49.1002C8.82512 46.345 4.34407 42.7323 4.34407 39.8676C4.34407 37.003 8.82512 33.372 15.7521 30.6351C17.435 29.96 19.2744 29.3579 21.1724 28.7923C22.2878 32.3685 23.7554 36.0907 25.5752 39.9041C23.775 43.6993 22.327 47.4033 21.2311 50.9613C19.2939 50.3956 17.4545 49.7753 15.7521 49.1002ZM26.2797 75.1738C23.6184 73.7506 22.4639 68.3315 23.364 61.3615C23.5793 59.6464 23.9315 57.84 24.362 55.9972C28.1973 56.873 32.3848 57.5481 36.7876 57.986C39.4293 61.3615 42.1688 64.4268 44.9278 67.109C38.5487 72.6376 32.5609 75.6664 28.4908 75.6664C27.6103 75.6482 26.8667 75.484 26.2797 75.1738ZM72.6947 61.2703C73.6144 68.2403 72.4794 73.6594 69.8377 75.1008C69.2507 75.4292 68.4876 75.5752 67.5874 75.5752C63.5369 75.5752 57.5296 72.5646 51.1504 67.0725C53.8899 64.3904 56.6294 61.3433 59.232 57.9677C63.6543 57.5298 67.8418 56.8547 71.6771 55.9607C72.1272 57.8035 72.4794 59.5734 72.6947 61.2703ZM80.2283 49.1002C78.5455 49.7753 76.7061 50.3774 74.808 50.943C73.6926 47.3668 72.225 43.6446 70.4052 39.8312C72.2055 36.036 73.6535 32.332 74.7493 28.774C76.6865 29.3397 78.5259 29.96 80.2479 30.6351C87.1749 33.3903 91.6559 37.003 91.6559 39.8676C91.6364 42.7323 87.1553 46.3632 80.2283 49.1002Z" fill="black" fill-opacity="0.5"/>
<path d="M47.9805 48.2061C52.9194 48.2061 56.9231 44.4728 56.9231 39.8676C56.9231 35.2624 52.9194 31.5292 47.9805 31.5292C43.0417 31.5292 39.038 35.2624 39.038 39.8676C39.038 44.4728 43.0417 48.2061 47.9805 48.2061Z" fill="black" fill-opacity="0.5"/>
</svg>
