<svg width="96" height="96" viewBox="0 0 96 96" fill="none" xmlns="http://www.w3.org/2000/svg">
<path d="M66.518 66.7749C70.0606 66.3902 72.7482 63.1862 72.626 59.341C72.5041 55.4962 69.4497 52.4201 65.7848 52.4201H65.5407C61.7532 52.5484 58.8214 55.8806 58.9437 59.8536C59.0659 61.7763 59.7987 63.4424 60.8982 64.5958C56.7447 73.1832 50.3922 79.4633 40.8634 84.7181C34.3887 88.3068 27.6698 89.5885 20.9509 88.6915C15.4534 87.9224 11.1776 85.3593 8.48963 81.1294C4.58063 74.8493 4.21425 68.0563 7.51276 61.2636C9.83401 56.3932 13.4985 52.8045 15.8198 51.0101C15.3311 49.3441 14.598 46.5245 14.2316 44.474C-3.48226 57.9314 -1.64963 76.1311 3.72563 84.7181C7.75688 91.1267 15.942 95.0998 24.9822 95.0998C27.4253 95.0998 29.8684 94.8433 32.3119 94.2028C47.9491 90.9985 59.7991 81.2576 66.518 66.7749ZM88.019 50.8823C78.7343 39.4753 65.0521 33.1953 49.4149 33.1953H47.4604C46.3609 30.8883 44.0397 29.3501 41.4743 29.3501H41.2298C37.443 29.4783 34.5113 32.8105 34.6332 36.784C34.7554 40.6288 37.8094 43.7049 41.4743 43.7049H41.7184C44.4061 43.5766 46.7273 41.7823 47.7046 39.3471H49.9036C59.1882 39.3471 67.9838 42.1666 75.9248 47.678C82.0329 51.9075 86.4309 57.4188 88.874 64.0832C90.9507 69.4663 90.8285 74.7211 88.6295 79.2071C85.2091 85.9998 79.4675 89.7167 71.8932 89.7167C67.0066 89.7167 62.3644 88.1785 59.9209 87.025C58.5773 88.3068 56.1338 90.3572 54.4234 91.6393C59.6768 94.2024 65.0521 95.6124 70.1828 95.6124C81.9106 95.6124 90.5844 88.8194 93.8829 82.0267C97.4255 74.5928 97.181 61.7763 88.019 50.8823ZM25.9594 68.9533C26.0817 72.7985 29.1357 75.8742 32.8005 75.8742H33.045C36.8322 75.7463 39.7639 72.4137 39.6417 68.4406C39.5198 64.5954 36.4654 61.5197 32.8005 61.5197H32.5564C32.3119 61.5197 31.9452 61.5197 31.7014 61.6476C26.6925 52.9324 24.6158 43.4484 25.3489 33.1949C25.8372 25.5049 28.2807 18.8401 32.5564 13.3288C36.099 8.5866 42.9402 6.27964 47.5827 6.15178C60.5318 5.89527 66.029 22.8132 66.3957 29.6062C67.9838 29.9906 70.6715 30.8879 72.5041 31.5288C71.0378 10.7661 58.8214 0 47.0941 0C36.099 0 25.9594 8.33089 21.9278 20.6348C16.3084 37.0401 19.9733 52.8045 26.8144 65.2367C26.2039 66.1337 25.8372 67.5437 25.9594 68.9537V68.9533Z" fill="black" fill-opacity="0.5"/>
</svg>
